<svg width="1440" height="540" viewBox="0 0 1440 540" fill="none" xmlns="http://www.w3.org/2000/svg">
<g opacity="0.2">
<g opacity="0.453348" filter="url(#filter0_f_638_4096)">
<path d="M628.656 140.67C628.656 140.67 700.212 101.903 706.458 71.7764C750.806 -142.101 735.919 -108.057 748.234 -141.279C758.653 -169.386 775.294 34.4214 815.37 97.3862C856.354 161.78 939.169 -171.9 989.515 -142.19C1033.14 -116.446 1041.08 97.5382 1075.57 96.4043C1119.82 94.95 1132.19 -107.245 1148.14 -107.305C1156.96 -107.339 1174.36 35.0332 1203.21 69.9018C1206.18 73.4918 1231.13 32.2321 1233.83 34.3033C1242.65 41.0729 1328.94 51.1996 1337.97 48.1035C1385.61 31.7532 1355.87 -108.089 1372.86 -108.153C1381.57 -108.186 1371.65 -2.86517 1425.38 19.3872C1478.04 41.1917 1595.24 -20.7783 1520.11 47.4161C1491.42 73.4531 1075.9 183.928 1075.9 183.928C1075.9 183.928 1059.93 350.135 1036.31 347.299C969 339.219 927.444 192.69 905.651 201.129C853.757 221.224 882.383 322.811 830.366 310.227C818.762 307.42 813.151 204.443 801.569 201.522C717.051 180.2 543.828 228.515 543.828 228.515L628.656 140.67Z" fill="url(#paint0_linear_638_4096)"/>
</g>
<path d="M-309.142 490.39L-229.071 468.69C-227.327 468.217 -225.682 467.433 -224.217 466.376L-126.538 395.887C-123.998 394.055 -120.949 393.063 -117.817 393.051L-48.0352 392.788C-44.2854 392.773 -40.6769 391.355 -37.9208 388.813L53.0811 304.861C58.0598 300.268 65.4988 299.581 71.2338 303.186L247.543 413.993C253.22 417.561 260.576 416.927 265.559 412.442L342.22 343.443C345.789 340.23 350.681 338.92 355.378 339.92L438.79 357.678C442.74 358.519 446.862 357.731 450.223 355.494L554.25 286.272C559.476 282.794 566.316 282.939 571.391 286.635L646.813 341.571C652.543 345.745 660.412 345.338 665.681 340.594L710.835 299.94C714.54 296.605 719.658 295.328 724.495 296.531L801.746 315.76C806.371 316.911 811.269 315.795 814.939 312.754L894.905 246.499C897.378 244.45 900.442 243.249 903.649 243.072L990.532 238.28C992.371 238.179 994.212 238.417 995.965 238.982L1076.07 264.836C1081.88 266.71 1088.25 264.878 1092.17 260.203L1172.79 164.124C1177.01 159.099 1184 157.396 1190.06 159.921L1315.62 212.279C1351.35 227.18 1392.48 220.113 1421.19 194.137L1536.74 89.6051C1542.22 84.6473 1550.49 84.4193 1556.23 89.0679L1629.28 148.175C1633.66 151.722 1639.66 152.511 1644.81 150.218L1727.63 113.349C1729.77 112.398 1731.65 110.961 1733.14 109.152L1815.65 8.45232" stroke="url(#paint1_linear_638_4096)" stroke-width="2" stroke-linecap="round" stroke-linejoin="round"/>
<g filter="url(#filter1_f_638_4096)">
<path d="M-309.226 468.287L-227.923 431.178C-227.026 430.769 -226.091 430.449 -225.132 430.223L-126.697 407.048C-124.007 406.414 -121.194 406.537 -118.569 407.401L-43.5834 432.082C-16.9538 440.847 12.1322 438.031 36.586 424.321L157.67 356.432C162.652 353.639 168.788 353.918 173.497 357.151L265.853 420.566C285.898 434.33 313.068 430.931 329.105 412.653L419.314 309.834C434.264 292.793 458.809 287.943 479.117 298.017L575.713 345.932C581.051 348.58 587.45 347.817 592.016 343.988L722.445 234.628C727.378 230.492 734.401 229.965 739.896 233.319L844.508 297.164L936.342 185.533L1013.76 221.792C1019.83 224.637 1027.05 223.105 1031.45 218.04L1061.03 183.96C1075.99 166.718 1099.11 158.92 1121.46 163.576L1300.19 200.816C1331.72 207.384 1364.47 198.369 1388.2 176.598L1471.83 99.8568C1477.75 94.4236 1486.9 94.6216 1492.58 100.306L1535.04 142.793C1541.23 148.989 1551.39 148.584 1557.07 141.913L1630.29 55.8943C1633.83 51.7403 1639.34 49.8335 1644.69 50.9151L1724.38 67.0347C1728.43 67.8524 1732.63 66.9693 1736 64.593L1815.65 8.45232" stroke="url(#paint2_linear_638_4096)" stroke-width="2" stroke-linecap="round" stroke-linejoin="round"/>
</g>
<g opacity="0.542522" filter="url(#filter2_f_638_4096)">
<path d="M-304.628 432.787C-319.925 425.408 -304.13 416.095 -288.833 423.473L-223.974 454.759C-222.653 455.397 -134.227 412.931 -134.227 412.931C-125.09 408.352 -115.018 405.949 -104.798 405.91L-27.9637 405.62C-26.8306 405.616 39.2809 339.362 39.2809 339.362C55.7663 325.055 78.2418 319.789 99.3664 325.284L149.647 338.363C150.884 338.684 216.634 302.199 216.634 302.199C235.602 290.691 259.072 289.444 279.153 298.877L335.877 299.937C337.844 300.861 340.187 300.327 341.559 298.641L392.286 236.297C406.097 219.324 427.4 210.267 449.206 212.098L523.26 214.446C614.477 222.108 906.153 43.4193 952.117 -22.2276C952.117 -22.2276 1038.24 64.6058 1063.7 84.6793C1063.7 84.6793 1153.27 -0.87573 1172.19 -0.947143C1202.31 -1.06079 1293.06 57.735 1293.06 57.735C1293.53 57.9817 1445.01 -62.7378 1464.52 -61.1886C1491.45 -59.051 1517.25 -37.3953 1534.03 -24.4235C1536.45 -22.5537 1621.41 -61.7807 1621.41 -61.7807C1641.36 -81.9425 1646.5 -62.8802 1672.01 -50.4848L1723.81 -25.3136C1725.45 -24.5167 1829.44 -98.0487 1829.44 -98.0487C1842.72 -108.639 1746.86 8.12799 1723.9 -3.02911L1640.43 -38.1971C1638.6 -39.0825 1561.58 29.8564 1543 28.4054C1527.62 27.2041 1464.66 -24.1618 1464.66 -24.1618C1462.11 -26.1949 1342.92 107.963 1342.92 107.963C1327.42 111.617 1252.91 115.739 1238.8 108.356L1192.63 84.1928C1144.58 59.0491 1053.52 228.556 1037.28 249.301L997.524 176.205C997.524 176.205 919.165 285.827 868.162 296.654C817.158 307.481 743.684 259.84 743.684 259.84L642.72 246.492C639.425 248.099 636.003 249.429 632.488 250.47L542.471 277.116C534.581 279.452 526.326 280.297 518.127 279.608L444.058 273.386C442.501 273.255 440.979 273.902 439.992 275.114L389.265 337.458C370.065 361.055 337.261 368.539 309.727 355.604L254.876 324.697C253.442 324.023 185.116 369.711 185.116 369.711C169.815 378.994 151.407 381.69 134.086 377.185L83.7768 356.457C82.2679 356.065 -11.3416 422.426 -11.3416 422.426C-17.2409 427.546 -38.9648 415.504 -110.678 426.533C-136.067 430.437 -195.699 463.128 -195.699 463.128C-214.062 472.332 -226.848 479.336 -245.348 470.412L-304.628 432.787Z" fill="url(#paint3_linear_638_4096)"/>
</g>
<path d="M-302.237 439.875L-214.648 402.898C-210.996 401.357 -206.883 401.323 -203.207 402.805L-119.666 436.473C-115.45 438.172 -110.69 437.868 -106.725 435.645L-33.4155 394.555C-29.9581 392.617 -25.8743 392.126 -22.0563 393.19L58.3181 415.579C63.5034 417.023 69.0651 415.579 72.8919 411.793L147.701 337.796C152.701 332.85 160.466 332.042 166.377 335.852L240.647 383.73C246.714 387.641 254.707 386.676 259.669 381.433L340.094 296.445C344.622 291.66 351.743 290.389 357.646 293.313L421.254 324.818C425.662 327.001 430.86 326.884 435.166 324.505L517.547 278.987C523.403 275.751 530.693 276.785 535.419 281.52L638.37 384.68C644.929 391.252 655.823 390.347 661.208 382.782L797.992 190.619C799.524 188.467 801.597 186.757 804.003 185.663L1066.67 66.2138C1070.73 64.3657 1075.41 64.4238 1079.42 66.3724L1305.33 175.965L1412.41 218.329C1426.89 224.058 1443.29 222.071 1455.98 213.048L1619.65 96.7166" stroke="url(#paint4_linear_638_4096)" stroke-width="2" stroke-linecap="round" stroke-linejoin="round"/>
<path d="M-309.324 442.267L-226.854 461.998C-223.532 462.793 -220.037 462.43 -216.949 460.969L-116.119 413.265C-114.131 412.325 -111.96 411.833 -109.76 411.825L-26.4144 411.51C-22.8217 411.497 -19.3531 410.194 -16.6396 407.839L67.5023 334.819C71.2358 331.579 76.3258 330.386 81.1098 331.631L150.206 349.603C154.128 350.623 158.297 350.013 161.762 347.91L243.869 298.095C248.165 295.489 253.48 295.206 258.028 297.343L337.293 334.578C343.529 337.508 350.958 335.813 355.306 330.469L422.808 247.509C426.022 243.56 431.02 241.51 436.081 242.066L575.574 257.393C578.836 257.751 582.126 257.03 584.939 255.34L714.019 177.768C715.536 176.856 717.203 176.22 718.942 175.889L981.194 126.004C984.187 125.434 987.282 125.79 990.068 127.023L1087.87 170.315C1094.06 173.051 1101.3 171.315 1105.57 166.076L1192.87 58.9736C1196.3 54.7756 1201.71 52.7482 1207.05 53.6693L1371.46 82.0439C1376.47 82.9081 1381.58 81.1781 1385.03 77.4474L1451.87 5.17154C1455.86 0.862171 1461.99 -0.726295 1467.57 1.10648L1540.24 24.9901C1543.96 26.2141 1548.02 25.9314 1551.54 24.2024L1631.56 -15.1214C1634.31 -16.4686 1637.39 -16.9467 1640.41 -16.4916L1726.85 -3.46993C1729.22 -3.11405 1731.63 -3.32759 1733.89 -4.09276L1815.5 -31.6838" stroke="url(#paint5_linear_638_4096)" stroke-width="4" stroke-linecap="round" stroke-linejoin="round"/>
</g>
<defs>
<filter id="filter0_f_638_4096" x="439.473" y="-248.422" width="1209.43" height="700.112" filterUnits="userSpaceOnUse" color-interpolation-filters="sRGB">
<feFlood flood-opacity="0" result="BackgroundImageFix"/>
<feBlend mode="normal" in="SourceGraphic" in2="BackgroundImageFix" result="shape"/>
<feGaussianBlur stdDeviation="52.1775" result="effect1_foregroundBlur_638_4096"/>
</filter>
<filter id="filter1_f_638_4096" x="-317.492" y="0.186297" width="2141.41" height="476.367" filterUnits="userSpaceOnUse" color-interpolation-filters="sRGB">
<feFlood flood-opacity="0" result="BackgroundImageFix"/>
<feBlend mode="normal" in="SourceGraphic" in2="BackgroundImageFix" result="shape"/>
<feGaussianBlur stdDeviation="3.63297" result="effect1_foregroundBlur_638_4096"/>
</filter>
<filter id="filter2_f_638_4096" x="-375.863" y="-163.729" width="2271.56" height="703.266" filterUnits="userSpaceOnUse" color-interpolation-filters="sRGB">
<feFlood flood-opacity="0" result="BackgroundImageFix"/>
<feBlend mode="normal" in="SourceGraphic" in2="BackgroundImageFix" result="shape"/>
<feGaussianBlur stdDeviation="32.5" result="effect1_foregroundBlur_638_4096"/>
</filter>
<linearGradient id="paint0_linear_638_4096" x1="1070.77" y1="-372.788" x2="668.512" y2="412.815" gradientUnits="userSpaceOnUse">
<stop stop-color="#F4FF05" stop-opacity="0.389719"/>
<stop offset="0.363677" stop-color="#CB3D9A"/>
<stop offset="0.790756" stop-color="#C56FDA"/>
<stop offset="1" stop-color="#38FFE7" stop-opacity="0.489074"/>
</linearGradient>
<linearGradient id="paint1_linear_638_4096" x1="655.039" y1="723.711" x2="872.573" y2="-175.231" gradientUnits="userSpaceOnUse">
<stop stop-color="#45AFEE" stop-opacity="0.01"/>
<stop offset="0.0375866" stop-color="#43B1EC" stop-opacity="0.615533"/>
<stop offset="0.0805049" stop-color="#41B3E9" stop-opacity="0.767526"/>
<stop offset="0.146149" stop-color="#3EB7E5"/>
<stop offset="0.747659" stop-color="#23DBBD"/>
<stop offset="0.842081" stop-color="#1EE0B7" stop-opacity="0.852977"/>
<stop offset="0.896184" stop-color="#1CE4B3" stop-opacity="0.768733"/>
<stop offset="0.927591" stop-color="#1BE5B1" stop-opacity="0.144475"/>
<stop offset="1" stop-color="#17EAAC" stop-opacity="0.01"/>
</linearGradient>
<linearGradient id="paint2_linear_638_4096" x1="1002.13" y1="-85.9718" x2="794.801" y2="730.21" gradientUnits="userSpaceOnUse">
<stop stop-color="#FFB844" stop-opacity="0.01"/>
<stop offset="0.065819" stop-color="#E79B77" stop-opacity="0.14439"/>
<stop offset="0.133018" stop-color="#CF7DAC" stop-opacity="0.690027"/>
<stop offset="0.239409" stop-color="#A94DFF" stop-opacity="0.647334"/>
<stop offset="0.541479" stop-color="#B1FF72"/>
<stop offset="0.767902" stop-color="#50C2F1"/>
<stop offset="0.878054" stop-color="#62A0FF"/>
<stop offset="0.940621" stop-color="#5E81E9"/>
<stop offset="1" stop-color="#FF10D1" stop-opacity="0.01"/>
</linearGradient>
<linearGradient id="paint3_linear_638_4096" x1="818.845" y1="-356.385" x2="528.983" y2="704.307" gradientUnits="userSpaceOnUse">
<stop stop-color="#F4FF05" stop-opacity="0.389719"/>
<stop offset="0.445538" stop-color="#CB3DC4"/>
<stop offset="0.790756" stop-color="#6FBEDA"/>
<stop offset="1" stop-color="#38FFE7" stop-opacity="0.489074"/>
</linearGradient>
<linearGradient id="paint4_linear_638_4096" x1="572.16" y1="607.901" x2="692.681" y2="-40.6262" gradientUnits="userSpaceOnUse">
<stop stop-color="#C16364" stop-opacity="0.01"/>
<stop offset="0.0498344" stop-color="#C16C67" stop-opacity="0.558792"/>
<stop offset="0.0884448" stop-color="#C17168"/>
<stop offset="0.124227" stop-color="#C1756A"/>
<stop offset="0.836363" stop-color="#C1DE8B"/>
<stop offset="0.871495" stop-color="#C1E98F"/>
<stop offset="0.929393" stop-color="#C1EF91" stop-opacity="0.0925328"/>
<stop offset="1" stop-color="#C1F793" stop-opacity="0.01"/>
</linearGradient>
<linearGradient id="paint5_linear_638_4096" x1="1905.53" y1="5.74757" x2="1568.85" y2="1174.5" gradientUnits="userSpaceOnUse">
<stop stop-color="#FF7144" stop-opacity="0.01"/>
<stop offset="0.0949252" stop-color="#FF8979"/>
<stop offset="0.239409" stop-color="#FF4DCA"/>
<stop offset="0.442535" stop-color="#E930FF"/>
<stop offset="0.940665" stop-color="#E44D88"/>
<stop offset="0.970958" stop-color="#E34E81" stop-opacity="0.594203"/>
<stop offset="1" stop-color="#E3507A" stop-opacity="0.01"/>
</linearGradient>
</defs>
</svg>
