<svg width="30" height="31" viewBox="0 0 30 31" fill="none" xmlns="http://www.w3.org/2000/svg">
<rect x="30" y="30.1833" width="30" height="30" rx="4.65097" transform="rotate(180 30 30.1833)" fill="#9BA6FA"/>
<path d="M22.7315 6.28882L20.3602 8.66011C19.7581 9.25624 19.4243 10.0731 19.4335 10.9281L19.4996 18.2727L11.4937 10.2668C11.0672 9.84542 10.4333 9.71804 9.88785 9.94413C9.3424 10.1702 8.99289 10.7052 9.00237 11.2995L9.07456 19.3254C9.08114 19.7184 8.92874 20.0945 8.65194 20.3684L6.28888 22.7314C5.94783 23.0725 5.95285 23.6305 6.30009 23.9777C6.64733 24.3249 7.20529 24.33 7.54634 23.9889L9.9094 21.6258C10.5389 21.0213 10.8887 20.1808 10.8771 19.3001L10.7536 12.0297L18.7594 20.0356C19.1813 20.4591 19.8131 20.5896 20.3575 20.3657C20.5378 20.2969 20.701 20.1909 20.8365 20.0543C21.1094 19.7817 21.2587 19.4087 21.2509 19.0195L21.1949 10.9439C21.1941 10.557 21.346 10.1882 21.6177 9.91758L23.989 7.54628C24.33 7.20523 24.325 6.64726 23.9778 6.30003C23.6305 5.95279 23.0725 5.94777 22.7315 6.28882V6.28882Z" fill="#2B2968"/>
</svg>
