<svg width="178" height="42" viewBox="0 0 178 42" fill="none" xmlns="http://www.w3.org/2000/svg">
<rect x="30" y="36" width="30" height="30" rx="4.65097" transform="rotate(180 30 36)" fill="#9BA6FA"/>
<path d="M22.7315 12.1055L20.3602 14.4768C19.7581 15.0729 19.4243 15.8898 19.4335 16.7447L19.4996 24.0894L11.4937 16.0835C11.0672 15.6621 10.4333 15.5347 9.88785 15.7608C9.3424 15.9869 8.99289 16.5219 9.00237 17.1162L9.07456 25.1421C9.08114 25.535 8.92874 25.9111 8.65194 26.185L6.28888 28.5481C5.94783 28.8891 5.95285 29.4471 6.30009 29.7943C6.64733 30.1416 7.20529 30.1466 7.54634 29.8056L9.9094 27.4425C10.5389 26.838 10.8887 25.9975 10.8771 25.1167L10.7536 17.8464L18.7594 25.8522C19.1813 26.2758 19.8131 26.4063 20.3575 26.1823C20.5378 26.1136 20.701 26.0075 20.8365 25.8709C21.1094 25.5984 21.2587 25.2253 21.2509 24.8362L21.1949 16.7606C21.1941 16.3737 21.346 16.0049 21.6177 15.7342L23.989 13.3629C24.33 13.0219 24.325 12.4639 23.9778 12.1167C23.6305 11.7694 23.0725 11.7644 22.7315 12.1055V12.1055Z" fill="#2B2968"/>
<path d="M38.9752 7.83553H42.2071L50.4512 28.3507L58.678 7.83553H61.9273L51.6956 32.9999H49.1723L38.9752 7.83553ZM37.9209 7.83553H40.7726L41.2393 23.183V32.9999H37.9209V7.83553ZM60.1125 7.83553H62.9643V32.9999H59.6459V23.183L60.1125 7.83553ZM71.8133 14.2995V32.9999H68.5986V14.2995H71.8133ZM68.3566 9.33917C68.3566 8.82067 68.5122 8.38283 68.8233 8.02565C69.1459 7.66846 69.6183 7.48987 70.2405 7.48987C70.8512 7.48987 71.3178 7.66846 71.6404 8.02565C71.9746 8.38283 72.1416 8.82067 72.1416 9.33917C72.1416 9.83462 71.9746 10.2609 71.6404 10.6181C71.3178 10.9638 70.8512 11.1366 70.2405 11.1366C69.6183 11.1366 69.1459 10.9638 68.8233 10.6181C68.5122 10.2609 68.3566 9.83462 68.3566 9.33917ZM80.1438 18.2919V32.9999H76.9464V14.2995H79.9709L80.1438 18.2919ZM79.3833 22.9411L78.0525 22.8892C78.064 21.6102 78.2541 20.4292 78.6228 19.3461C78.9915 18.2515 79.51 17.301 80.1783 16.4944C80.8466 15.6879 81.6416 15.0657 82.5634 14.6278C83.4967 14.1785 84.5279 13.9538 85.6571 13.9538C86.5789 13.9538 87.4085 14.0805 88.1459 14.334C88.8833 14.576 89.5113 14.9677 90.0298 15.5093C90.5598 16.0508 90.963 16.7537 91.2396 17.6178C91.5161 18.4705 91.6544 19.5132 91.6544 20.7461V32.9999H88.4397V20.7115C88.4397 19.7321 88.2957 18.9486 88.0076 18.361C87.7196 17.7619 87.299 17.3298 86.7459 17.0648C86.1929 16.7882 85.5131 16.65 84.7065 16.65C83.9115 16.65 83.1856 16.817 82.5288 17.1512C81.8836 17.4853 81.3248 17.9462 80.8524 18.5338C80.3915 19.1215 80.0285 19.7955 79.7635 20.556C79.51 21.3049 79.3833 22.0999 79.3833 22.9411ZM104.34 14.2995V16.7537H94.2296V14.2995H104.34ZM97.6516 9.75397H100.849V28.368C100.849 29.0017 100.947 29.4799 101.143 29.8025C101.339 30.1251 101.592 30.3383 101.903 30.442C102.214 30.5457 102.549 30.5975 102.906 30.5975C103.171 30.5975 103.447 30.5745 103.735 30.5284C104.035 30.4708 104.26 30.4247 104.409 30.3901L104.427 32.9999C104.173 33.0805 103.839 33.1554 103.424 33.2246C103.021 33.3052 102.531 33.3455 101.955 33.3455C101.172 33.3455 100.452 33.19 99.7948 32.8789C99.138 32.5678 98.6137 32.0493 98.222 31.3234C97.8418 30.586 97.6516 29.5951 97.6516 28.3507V9.75397ZM117.856 23.1312H111.133V20.4177H117.856C119.158 20.4177 120.212 20.2103 121.019 19.7955C121.825 19.3807 122.413 18.8046 122.781 18.0672C123.162 17.3298 123.352 16.4887 123.352 15.5438C123.352 14.6797 123.162 13.8674 122.781 13.1069C122.413 12.3464 121.825 11.7358 121.019 11.2749C120.212 10.8025 119.158 10.5663 117.856 10.5663H111.91V32.9999H108.575V7.83553H117.856C119.757 7.83553 121.364 8.16391 122.678 8.82067C123.991 9.47744 124.988 10.3877 125.668 11.5514C126.348 12.7036 126.687 14.0229 126.687 15.5093C126.687 17.1224 126.348 18.4993 125.668 19.64C124.988 20.7807 123.991 21.6506 122.678 22.2497C121.364 22.8374 119.757 23.1312 117.856 23.1312ZM141.24 29.8025V20.1757C141.24 19.4383 141.09 18.7988 140.791 18.2573C140.502 17.7042 140.065 17.2779 139.477 16.9783C138.889 16.6788 138.163 16.529 137.299 16.529C136.493 16.529 135.784 16.6672 135.173 16.9438C134.574 17.2203 134.102 17.5833 133.756 18.0326C133.422 18.482 133.255 18.9659 133.255 19.4844H130.058C130.058 18.8161 130.23 18.1536 130.576 17.4968C130.922 16.8401 131.417 16.2467 132.063 15.7167C132.719 15.1751 133.503 14.7488 134.413 14.4377C135.335 14.1151 136.36 13.9538 137.489 13.9538C138.849 13.9538 140.047 14.1842 141.084 14.6451C142.133 15.106 142.951 15.8031 143.539 16.7364C144.138 17.6582 144.437 18.8161 144.437 20.2103V28.921C144.437 29.5432 144.489 30.2058 144.593 30.9086C144.708 31.6115 144.875 32.2164 145.094 32.7233V32.9999H141.758C141.597 32.6312 141.47 32.1415 141.378 31.5308C141.286 30.9086 141.24 30.3325 141.24 29.8025ZM141.793 21.6621L141.828 23.9089H138.596C137.685 23.9089 136.873 23.9838 136.159 24.1336C135.444 24.2719 134.845 24.485 134.361 24.7731C133.877 25.0611 133.509 25.4241 133.255 25.8619C133.002 26.2882 132.875 26.7894 132.875 27.3656C132.875 27.9532 133.007 28.489 133.272 28.9729C133.537 29.4568 133.935 29.8428 134.465 30.1309C135.006 30.4074 135.669 30.5457 136.452 30.5457C137.432 30.5457 138.296 30.3383 139.045 29.9235C139.794 29.5087 140.387 29.0017 140.825 28.4025C141.274 27.8034 141.516 27.2215 141.551 26.6569L142.916 28.1951C142.836 28.6791 142.617 29.2149 142.26 29.8025C141.902 30.3901 141.424 30.9547 140.825 31.4962C140.237 32.0263 139.535 32.4699 138.717 32.827C137.91 33.1727 137 33.3455 135.986 33.3455C134.718 33.3455 133.606 33.0978 132.65 32.6024C131.705 32.1069 130.968 31.4444 130.438 30.6148C129.919 29.7737 129.66 28.8346 129.66 27.7976C129.66 26.7952 129.856 25.9138 130.248 25.1533C130.64 24.3813 131.204 23.7418 131.942 23.2349C132.679 22.7164 133.566 22.3246 134.603 22.0596C135.64 21.7946 136.798 21.6621 138.077 21.6621H141.793ZM152.664 17.2376V32.9999H149.467V14.2995H152.578L152.664 17.2376ZM158.506 14.1958L158.489 17.1685C158.224 17.1109 157.97 17.0763 157.728 17.0648C157.498 17.0417 157.233 17.0302 156.933 17.0302C156.196 17.0302 155.545 17.1454 154.98 17.3759C154.415 17.6063 153.937 17.9289 153.546 18.3437C153.154 18.7585 152.843 19.254 152.612 19.8301C152.393 20.3947 152.249 21.0169 152.18 21.6967L151.281 22.2152C151.281 21.086 151.391 20.026 151.61 19.035C151.84 18.0441 152.192 17.1685 152.664 16.408C153.136 15.636 153.736 15.0369 154.462 14.6105C155.199 14.1727 156.075 13.9538 157.089 13.9538C157.319 13.9538 157.584 13.9826 157.884 14.0402C158.183 14.0863 158.391 14.1381 158.506 14.1958ZM168.876 33.3455C167.574 33.3455 166.393 33.1266 165.333 32.6888C164.284 32.2394 163.38 31.6115 162.619 30.8049C161.87 29.9984 161.294 29.042 160.891 27.9359C160.488 26.8298 160.286 25.6199 160.286 24.3064V23.5805C160.286 22.0596 160.511 20.7058 160.96 19.519C161.409 18.3207 162.02 17.3067 162.792 16.4771C163.564 15.6475 164.44 15.0196 165.419 14.5933C166.398 14.1669 167.412 13.9538 168.461 13.9538C169.798 13.9538 170.95 14.1842 171.918 14.6451C172.897 15.106 173.698 15.7512 174.32 16.5808C174.942 17.3989 175.403 18.3668 175.703 19.4844C176.002 20.5905 176.152 21.8004 176.152 23.1139V24.5484H162.187V21.9386H172.955V21.6967C172.908 20.8671 172.736 20.0605 172.436 19.277C172.148 18.4935 171.687 17.8483 171.053 17.3413C170.42 16.8343 169.556 16.5808 168.461 16.5808C167.735 16.5808 167.067 16.7364 166.456 17.0475C165.845 17.3471 165.321 17.7964 164.883 18.3956C164.445 18.9947 164.106 19.7264 163.864 20.5905C163.622 21.4547 163.501 22.4514 163.501 23.5805V24.3064C163.501 25.1936 163.622 26.029 163.864 26.8125C164.117 27.5845 164.48 28.2643 164.952 28.8519C165.436 29.4395 166.018 29.9004 166.698 30.2346C167.389 30.5687 168.173 30.7358 169.049 30.7358C170.178 30.7358 171.134 30.5053 171.918 30.0444C172.701 29.5836 173.387 28.9671 173.974 28.1951L175.91 29.7334C175.507 30.344 174.994 30.9259 174.372 31.479C173.75 32.032 172.983 32.4814 172.073 32.827C171.174 33.1727 170.109 33.3455 168.876 33.3455Z" fill="#9BA6FA"/>
</svg>
